STARTFONT 2.1
COMMENT 
COMMENT Copyright (C) 2012, 2013 Uwe Waldmann
COMMENT 
COMMENT Permission is hereby granted, free of charge, to any person obtaining
COMMENT a copy of this font software and associated files (the "Software"),
COMMENT to deal in the Software without restriction, including without
COMMENT limitation the rights to use, copy, modify, merge, publish,
COMMENT distribute, embed, sublicense, and/or sell copies of the Software,
COMMENT and to permit persons to whom the Software is furnished to do so,
COMMENT subject to the following conditions:
COMMENT 
COMMENT (1) The above copyright notice, this permission notice, and the
COMMENT     disclaimer below shall be included in all copies or substantial
COMMENT     portions of the Software.
COMMENT 
COMMENT (2) If the design of any glyphs in the fonts that are contained in the
COMMENT     Software or generated during the installation process is modified
COMMENT     or if additional glyphs are added to the fonts, the fonts
COMMENT     must be renamed. The new names may not contain the word "UW",
COMMENT     irrespective of capitalisation; the new names may contain the word
COMMENT     "ttyp0", irrespective of capitalisation, only if preceded by a
COMMENT     foundry name different from "UW".
COMMENT 
COMMENT THE SOFTWARE IS PROVIDED "AS IS", WITHOUT WARRANTY OF ANY KIND, EXPRESS
COMMENT OR IMPLIED, INCLUDING BUT NOT LIMITED TO THE WARRANTIES OF
COMMENT MERCHANTABILITY, FITNESS FOR A PARTICULAR PURPOSE AND NONINFRINGEMENT.
COMMENT IN NO EVENT SHALL THE AUTHORS OR COPYRIGHT HOLDERS BE LIABLE FOR ANY
COMMENT CLAIM, DAMAGES OR OTHER LIABILITY, WHETHER IN AN ACTION OF CONTRACT,
COMMENT TORT OR OTHERWISE, ARISING FROM, OUT OF OR IN CONNECTION WITH THE
COMMENT SOFTWARE OR THE USE OR OTHER DEALINGS IN THE SOFTWARE.
COMMENT 
FONT -UW-Ttyp0-Bold-R-Normal--15-140-75-75-C-80-UW-Fontspecific
SIZE 15 75 75
FONTBOUNDINGBOX 8 15 0 -3
STARTPROPERTIES 19
FONTNAME_REGISTRY ""
FOUNDRY "UW"
FAMILY_NAME "Ttyp0"

STARTCHAR LtCapALdot
ENCODING 735
SWIDTH 960 0
DWIDTH 8 0
BBX 8 15 0 -3
BITMAP
00
00
10
30
38
38
58
4c
7c
cc
86
86
00
30
30
ENDCHAR
STARTCHAR LtCapBLdot
ENCODING 736
SWIDTH 960 0
DWIDTH 8 0
BBX 8 15 0 -3
BITMAP
00
00
fc
c6
c6
c6
fc
c6
c6
c6
c6
fc
00
30
30
ENDCHAR
STARTCHAR LtCapCLdot
ENCODING 737
SWIDTH 960 0
DWIDTH 8 0
BBX 8 15 0 -3
BITMAP
00
00
3c
66
c0
c0
c0
c0
c0
c0
66
3c
00
18
18
ENDCHAR
STARTCHAR LtCapDLdot
ENCODING 738
SWIDTH 960 0
DWIDTH 8 0
BBX 8 15 0 -3
BITMAP
00
00
f8
cc
c6
c6
c6
c6
c6
c6
cc
f8
00
30
30
ENDCHAR
STARTCHAR LtCapELdot
ENCODING 739
SWIDTH 960 0
DWIDTH 8 0
BBX 8 15 0 -3
BITMAP
00
00
fe
c2
c2
c8
f8
c8
c0
c2
c2
fe
00
30
30
ENDCHAR
STARTCHAR LtCapHLdot
ENCODING 740
SWIDTH 960 0
DWIDTH 8 0
BBX 8 15 0 -3
BITMAP
00
00
c6
c6
c6
c6
fe
c6
c6
c6
c6
c6
00
30
30
ENDCHAR
STARTCHAR LtCapILdot
ENCODING 741
SWIDTH 960 0
DWIDTH 8 0
BBX 8 15 0 -3
BITMAP
00
00
7e
18
18
18
18
18
18
18
18
7e
00
18
18
ENDCHAR
STARTCHAR LtCapKLdot
ENCODING 742
SWIDTH 960 0
DWIDTH 8 0
BBX 8 15 0 -3
BITMAP
00
00
c6
c4
cc
c8
d8
f8
cc
cc
c6
c6
00
30
30
ENDCHAR
STARTCHAR LtCapLLdot
ENCODING 743
SWIDTH 960 0
DWIDTH 8 0
BBX 8 15 0 -3
BITMAP
00
00
c0
c0
c0
c0
c0
c0
c0
c2
c2
fe
00
30
30
ENDCHAR
STARTCHAR LtCapMLdot
ENCODING 744
SWIDTH 960 0
DWIDTH 8 0
BBX 8 15 0 -3
BITMAP
00
00
c6
c6
ee
ee
fe
b6
b6
86
86
86
00
30
30
ENDCHAR
STARTCHAR LtCapNLdot
ENCODING 745
SWIDTH 960 0
DWIDTH 8 0
BBX 8 15 0 -3
BITMAP
00
00
c2
e2
e2
b2
b2
9a
9a
8e
8e
86
00
30
30
ENDCHAR
STARTCHAR LtCapOLdot
ENCODING 746
SWIDTH 960 0
DWIDTH 8 0
BBX 8 15 0 -3
BITMAP
00
00
7c
c6
c6
c6
c6
c6
c6
c6
c6
7c
00
30
30
ENDCHAR
STARTCHAR LtCapPLdot
ENCODING 747
SWIDTH 960 0
DWIDTH 8 0
BBX 8 15 0 -3
BITMAP
00
00
fc
c6
c6
c6
c6
fc
c0
c0
c0
c0
00
c0
c0
ENDCHAR
STARTCHAR LtCapQLdot
ENCODING 748
SWIDTH 960 0
DWIDTH 8 0
BBX 8 15 0 -3
BITMAP
00
00
7c
c6
c6
c6
c6
c6
c6
f6
de
7c
06
32
30
ENDCHAR
STARTCHAR LtCapRLdot
ENCODING 749
SWIDTH 960 0
DWIDTH 8 0
BBX 8 15 0 -3
BITMAP
00
00
fc
c6
c6
c6
fc
d8
cc
cc
c6
c6
00
30
30
ENDCHAR
STARTCHAR LtCapSLdot
ENCODING 750
SWIDTH 960 0
DWIDTH 8 0
BBX 8 15 0 -3
BITMAP
00
00
7c
c6
c0
e0
78
1c
06
06
c6
7c
00
30
30
ENDCHAR
STARTCHAR LtCapTLdot
ENCODING 751
SWIDTH 960 0
DWIDTH 8 0
BBX 8 15 0 -3
BITMAP
00
00
ff
db
18
18
18
18
18
18
18
18
00
18
18
ENDCHAR
STARTCHAR LtCapULdot
ENCODING 752
SWIDTH 960 0
DWIDTH 8 0
BBX 8 15 0 -3
BITMAP
00
00
c6
c6
c6
c6
c6
c6
c6
c6
c6
7c
00
30
30
ENDCHAR
STARTCHAR LtCapVLdot
ENCODING 753
SWIDTH 960 0
DWIDTH 8 0
BBX 8 15 0 -3
BITMAP
00
00
c2
c2
66
64
64
34
38
38
18
10
00
18
18
ENDCHAR
STARTCHAR LtCapWLdot
ENCODING 754
SWIDTH 960 0
DWIDTH 8 0
BBX 8 15 0 -3
BITMAP
00
00
c2
c2
c2
da
da
da
fe
6c
6c
6c
00
18
18
ENDCHAR
STARTCHAR LtCapYLdot
ENCODING 755
SWIDTH 960 0
DWIDTH 8 0
BBX 8 15 0 -3
BITMAP
00
00
c3
62
64
34
38
18
18
18
18
18
00
18
18
ENDCHAR
STARTCHAR LtCapZLdot
ENCODING 756
SWIDTH 960 0
DWIDTH 8 0
BBX 8 15 0 -3
BITMAP
00
00
fe
86
8c
1c
18
30
70
62
c2
fe
00
30
30
ENDCHAR
STARTCHAR LtSmlALdot
ENCODING 757
SWIDTH 960 0
DWIDTH 8 0
BBX 8 15 0 -3
BITMAP
00
00
00
00
00
7c
66
06
7e
c6
ce
76
00
30
30
ENDCHAR
STARTCHAR LtSmlBLdot
ENCODING 758
SWIDTH 960 0
DWIDTH 8 0
BBX 8 15 0 -3
BITMAP
00
00
c0
c0
c0
dc
e6
c6
c6
c6
e6
dc
00
18
18
ENDCHAR
STARTCHAR LtSmlCLdot
ENCODING 759
SWIDTH 960 0
DWIDTH 8 0
BBX 8 15 0 -3
BITMAP
00
00
00
00
00
3c
66
c0
c0
c0
66
3c
00
18
18
ENDCHAR
STARTCHAR LtSmlDLdot
ENCODING 760
SWIDTH 960 0
DWIDTH 8 0
BBX 8 15 0 -3
BITMAP
00
00
06
06
06
76
ce
c6
c6
c6
ce
76
00
30
30
ENDCHAR
STARTCHAR LtSmlELdot
ENCODING 761
SWIDTH 960 0
DWIDTH 8 0
BBX 8 15 0 -3
BITMAP
00
00
00
00
00
3c
66
c6
fe
c0
66
3c
00
18
18
ENDCHAR
STARTCHAR LtSmlHLdot
ENCODING 762
SWIDTH 960 0
DWIDTH 8 0
BBX 8 15 0 -3
BITMAP
00
00
c0
c0
c0
dc
e6
c6
c6
c6
c6
c6
00
30
30
ENDCHAR
STARTCHAR LtSmlILdot
ENCODING 763
SWIDTH 960 0
DWIDTH 8 0
BBX 8 15 0 -3
BITMAP
00
00
18
18
00
38
18
18
18
18
18
7e
00
18
18
ENDCHAR
STARTCHAR LtSmlKLdot
ENCODING 764
SWIDTH 960 0
DWIDTH 8 0
BBX 8 15 0 -3
BITMAP
00
00
c0
c0
c0
c6
cc
d0
f8
cc
c6
c6
00
30
30
ENDCHAR
STARTCHAR LtSmlLLdot
ENCODING 765
SWIDTH 960 0
DWIDTH 8 0
BBX 8 15 0 -3
BITMAP
00
00
38
18
18
18
18
18
18
18
18
7e
00
18
18
ENDCHAR
STARTCHAR LtSmlMLdot
ENCODING 766
SWIDTH 960 0
DWIDTH 8 0
BBX 8 15 0 -3
BITMAP
00
00
00
00
00
ac
fe
d6
d6
d6
d6
d6
00
30
30
ENDCHAR
STARTCHAR LtSmlNLdot
ENCODING 767
SWIDTH 960 0
DWIDTH 8 0
BBX 8 15 0 -3
BITMAP
00
00
00
00
00
dc
e6
c6
c6
c6
c6
c6
00
30
30
ENDCHAR
STARTCHAR LtSmlOLdot
ENCODING 768
SWIDTH 960 0
DWIDTH 8 0
BBX 8 15 0 -3
BITMAP
00
00
00
00
00
7c
c6
c6
c6
c6
c6
7c
00
30
30
ENDCHAR
STARTCHAR LtSmlPLdot
ENCODING 769
SWIDTH 960 0
DWIDTH 8 0
BBX 8 15 0 -3
BITMAP
00
00
00
00
00
dc
e6
c6
c6
c6
e6
dc
c0
d8
d8
ENDCHAR
STARTCHAR LtSmlQLdot
ENCODING 770
SWIDTH 960 0
DWIDTH 8 0
BBX 8 15 0 -3
BITMAP
00
00
00
00
00
76
ce
c6
c6
c6
ce
76
06
36
36
ENDCHAR
STARTCHAR LtSmlRLdot
ENCODING 771
SWIDTH 960 0
DWIDTH 8 0
BBX 8 15 0 -3
BITMAP
00
00
00
00
00
ee
76
60
60
60
60
60
00
60
60
ENDCHAR
STARTCHAR LtSmlSLdot
ENCODING 772
SWIDTH 960 0
DWIDTH 8 0
BBX 8 15 0 -3
BITMAP
00
00
00
00
00
7c
c6
c0
7c
06
c6
7c
00
30
30
ENDCHAR
STARTCHAR LtSmlTLdot
ENCODING 773
SWIDTH 960 0
DWIDTH 8 0
BBX 8 15 0 -3
BITMAP
00
00
00
30
30
fc
30
30
30
30
36
1c
00
18
18
ENDCHAR
STARTCHAR LtSmlULdot
ENCODING 774
SWIDTH 960 0
DWIDTH 8 0
BBX 8 15 0 -3
BITMAP
00
00
00
00
00
c6
c6
c6
c6
c6
ce
76
00
30
30
ENDCHAR
STARTCHAR LtSmlVLdot
ENCODING 775
SWIDTH 960 0
DWIDTH 8 0
BBX 8 15 0 -3
BITMAP
00
00
00
00
00
c2
c6
64
64
38
38
10
00
18
18
ENDCHAR
STARTCHAR LtSmlWLdot
ENCODING 776
SWIDTH 960 0
DWIDTH 8 0
BBX 8 15 0 -3
BITMAP
00
00
00
00
00
c2
da
da
da
7c
6c
6c
00
18
18
ENDCHAR
STARTCHAR LtSmlYLdot
ENCODING 777
SWIDTH 960 0
DWIDTH 8 0
BBX 8 15 0 -3
BITMAP
00
00
00
00
00
c2
c6
64
64
3c
38
18
10
d6
e6
ENDCHAR
STARTCHAR LtSmlZLdot
ENCODING 778
SWIDTH 960 0
DWIDTH 8 0
BBX 8 15 0 -3
BITMAP
00
00
00
00
00
fe
8e
0c
38
60
e2
fe
00
30
30
ENDCHAR
STARTCHAR LtCapOHornLdot
ENCODING 779
SWIDTH 960 0
DWIDTH 8 0
BBX 8 15 0 -3
BITMAP
07
03
7e
c6
c6
c6
c6
c6
c6
c6
c6
7c
00
30
30
ENDCHAR
STARTCHAR LtCapUHornLdot
ENCODING 780
SWIDTH 960 0
DWIDTH 8 0
BBX 8 15 0 -3
BITMAP
07
03
c6
c6
c6
c6
c6
c6
c6
c6
c6
7c
00
30
30
ENDCHAR
STARTCHAR LtSmlOHornLdot
ENCODING 781
SWIDTH 960 0
DWIDTH 8 0
BBX 8 15 0 -3
BITMAP
00
00
00
07
03
7e
c6
c6
c6
c6
c6
7c
00
30
30
ENDCHAR
STARTCHAR LtSmlUHornLdot
ENCODING 782
SWIDTH 960 0
DWIDTH 8 0
BBX 8 15 0 -3
BITMAP
00
00
00
07
03
c6
c6
c6
c6
c6
ce
76
00
30
30
ENDCHAR
STARTCHAR LtCapSDotLdot
ENCODING 783
SWIDTH 960 0
DWIDTH 8 0
BBX 8 15 0 -3
BITMAP
18
18
00
7c
c6
c0
70
3c
0e
06
c6
7c
00
30
30
ENDCHAR
STARTCHAR LtSmlSDotLdot
ENCODING 784
SWIDTH 960 0
DWIDTH 8 0
BBX 8 15 0 -3
BITMAP
00
00
18
18
00
7c
c6
c0
7c
06
c6
7c
00
30
30
ENDCHAR
STARTCHAR LtCapLMacronLdot
ENCODING 785
SWIDTH 960 0
DWIDTH 8 0
BBX 8 15 0 -3
BITMAP
7c
7c
00
c0
c0
c0
c0
c0
c0
c2
c2
fe
00
30
30
ENDCHAR
STARTCHAR LtCapRMacronLdot
ENCODING 786
SWIDTH 960 0
DWIDTH 8 0
BBX 8 15 0 -3
BITMAP
7c
7c
00
fc
c6
c6
c6
fc
d8
cc
c6
c6
00
30
30
ENDCHAR
STARTCHAR LtSmlLMacronLdot
ENCODING 787
SWIDTH 960 0
DWIDTH 8 0
BBX 8 15 0 -3
BITMAP
3c
3c
00
38
18
18
18
18
18
18
18
7e
00
18
18
ENDCHAR
STARTCHAR LtSmlRMacronLdot
ENCODING 788
SWIDTH 960 0
DWIDTH 8 0
BBX 8 15 0 -3
BITMAP
00
00
7c
7c
00
ee
76
60
60
60
60
60
00
60
60
ENDCHAR
STARTCHAR LtCapEAcuteLdot
ENCODING 789
SWIDTH 960 0
DWIDTH 8 0
BBX 8 15 0 -3
BITMAP
0c
18
10
fe
c2
c2
c8
f8
c8
c2
c2
fe
00
30
30
ENDCHAR
STARTCHAR LtCapOAcuteLdot
ENCODING 790
SWIDTH 960 0
DWIDTH 8 0
BBX 8 15 0 -3
BITMAP
0c
18
10
7c
c6
c6
c6
c6
c6
c6
c6
7c
00
30
30
ENDCHAR
STARTCHAR LtCapRAcuteLdot
ENCODING 791
SWIDTH 960 0
DWIDTH 8 0
BBX 8 15 0 -3
BITMAP
0c
18
10
fc
c6
c6
c6
fc
d8
cc
c6
c6
00
30
30
ENDCHAR
STARTCHAR LtSmlEAcuteLdot
ENCODING 792
SWIDTH 960 0
DWIDTH 8 0
BBX 8 15 0 -3
BITMAP
00
0c
18
10
00
3c
66
c6
fe
c0
66
3c
00
18
18
ENDCHAR
STARTCHAR LtSmlOAcuteLdot
ENCODING 793
SWIDTH 960 0
DWIDTH 8 0
BBX 8 15 0 -3
BITMAP
00
0c
18
10
00
7c
c6
c6
c6
c6
c6
7c
00
30
30
ENDCHAR
STARTCHAR LtSmlRAcuteLdot
ENCODING 794
SWIDTH 960 0
DWIDTH 8 0
BBX 8 15 0 -3
BITMAP
00
0c
18
10
00
ee
76
60
60
60
60
60
00
60
60
ENDCHAR
STARTCHAR LtSmlRMacronAcuteLdot
ENCODING 795
SWIDTH 960 0
DWIDTH 8 0
BBX 8 15 0 -3
BITMAP
0c
18
10
7c
00
ee
76
60
60
60
60
60
00
60
60
ENDCHAR
STARTCHAR LtCapEGraveLdot
ENCODING 796
SWIDTH 960 0
DWIDTH 8 0
BBX 8 15 0 -3
BITMAP
60
30
10
fe
c2
c2
c8
f8
c8
c2
c2
fe
00
30
30
ENDCHAR
STARTCHAR LtCapOGraveLdot
ENCODING 797
SWIDTH 960 0
DWIDTH 8 0
BBX 8 15 0 -3
BITMAP
60
30
10
7c
c6
c6
c6
c6
c6
c6
c6
7c
00
30
30
ENDCHAR
STARTCHAR LtCapRGraveLdot
ENCODING 798
SWIDTH 960 0
DWIDTH 8 0
BBX 8 15 0 -3
BITMAP
60
30
10
fc
c6
c6
c6
fc
d8
cc
c6
c6
00
30
30
ENDCHAR
STARTCHAR LtSmlEGraveLdot
ENCODING 799
SWIDTH 960 0
DWIDTH 8 0
BBX 8 15 0 -3
BITMAP
00
30
18
08
00
3c
66
c6
fe
c0
66
3c
00
18
18
ENDCHAR
STARTCHAR LtSmlOGraveLdot
ENCODING 800
SWIDTH 960 0
DWIDTH 8 0
BBX 8 15 0 -3
BITMAP
00
60
30
10
00
7c
c6
c6
c6
c6
c6
7c
00
30
30
ENDCHAR
STARTCHAR LtSmlRGraveLdot
ENCODING 801
SWIDTH 960 0
DWIDTH 8 0
BBX 8 15 0 -3
BITMAP
00
60
30
10
00
ee
76
60
60
60
60
60
00
60
60
ENDCHAR
STARTCHAR LtCapACircumLdot
ENCODING 802
SWIDTH 960 0
DWIDTH 8 0
BBX 8 15 0 -3
BITMAP
38
6c
00
30
38
38
58
4c
7c
cc
86
86
00
30
30
ENDCHAR
STARTCHAR LtCapECircumLdot
ENCODING 803
SWIDTH 960 0
DWIDTH 8 0
BBX 8 15 0 -3
BITMAP
38
6c
00
fe
c2
c2
c8
f8
c8
c2
c2
fe
00
30
30
ENDCHAR
STARTCHAR LtCapOCircumLdot
ENCODING 804
SWIDTH 960 0
DWIDTH 8 0
BBX 8 15 0 -3
BITMAP
38
6c
00
7c
c6
c6
c6
c6
c6
c6
c6
7c
00
30
30
ENDCHAR
STARTCHAR LtSmlACircumLdot
ENCODING 805
SWIDTH 960 0
DWIDTH 8 0
BBX 8 15 0 -3
BITMAP
00
18
3c
24
00
7c
66
06
7e
c6
ce
76
00
30
30
ENDCHAR
STARTCHAR LtSmlECircumLdot
ENCODING 806
SWIDTH 960 0
DWIDTH 8 0
BBX 8 15 0 -3
BITMAP
00
18
3c
24
00
3c
66
c6
fe
c0
66
3c
00
18
18
ENDCHAR
STARTCHAR LtSmlOCircumLdot
ENCODING 807
SWIDTH 960 0
DWIDTH 8 0
BBX 8 15 0 -3
BITMAP
00
10
38
6c
00
7c
c6
c6
c6
c6
c6
7c
00
30
30
ENDCHAR
STARTCHAR LtCapCCaronLdot
ENCODING 808
SWIDTH 960 0
DWIDTH 8 0
BBX 8 15 0 -3
BITMAP
36
1c
00
3c
66
c0
c0
c0
c0
c0
66
3c
00
18
18
ENDCHAR
STARTCHAR LtSmlCCaronLdot
ENCODING 809
SWIDTH 960 0
DWIDTH 8 0
BBX 8 15 0 -3
BITMAP
00
24
3c
18
00
3c
66
c0
c0
c0
66
3c
00
18
18
ENDCHAR
STARTCHAR LtCapABreveLdot
ENCODING 810
SWIDTH 960 0
DWIDTH 8 0
BBX 8 15 0 -3
BITMAP
cc
78
00
30
38
38
58
4c
7c
cc
86
86
00
30
30
ENDCHAR
STARTCHAR LtSmlABreveLdot
ENCODING 811
SWIDTH 960 0
DWIDTH 8 0
BBX 8 15 0 -3
BITMAP
00
00
cc
78
00
7c
66
06
7e
c6
ce
76
00
30
30
ENDCHAR
STARTCHAR LtSmlRLvline
ENCODING 815
SWIDTH 960 0
DWIDTH 8 0
BBX 8 15 0 -3
BITMAP
00
00
00
00
00
ee
76
60
60
60
60
60
30
30
30
ENDCHAR
STARTCHAR LtCapALring
ENCODING 817
SWIDTH 960 0
DWIDTH 8 0
BBX 8 15 0 -3
BITMAP
00
00
10
30
38
38
58
4c
7c
cc
86
86
30
68
30
ENDCHAR
STARTCHAR LtCapRLring
ENCODING 818
SWIDTH 960 0
DWIDTH 8 0
BBX 8 15 0 -3
BITMAP
00
00
fc
c6
c6
c6
fc
d8
cc
cc
c6
c6
30
68
30
ENDCHAR
STARTCHAR LtSmlALring
ENCODING 819
SWIDTH 960 0
DWIDTH 8 0
BBX 8 15 0 -3
BITMAP
00
00
00
00
00
7c
66
06
7e
c6
ce
76
18
34
18
ENDCHAR
STARTCHAR LtSmlLLring
ENCODING 820
SWIDTH 960 0
DWIDTH 8 0
BBX 8 15 0 -3
BITMAP
00
00
38
18
18
18
18
18
18
18
18
7e
18
34
18
ENDCHAR
STARTCHAR LtSmlRLring
ENCODING 821
SWIDTH 960 0
DWIDTH 8 0
BBX 8 15 0 -3
BITMAP
00
00
00
00
00
ee
76
60
60
60
60
60
60
d0
60
ENDCHAR
STARTCHAR LtSmlLMacronLring
ENCODING 822
SWIDTH 960 0
DWIDTH 8 0
BBX 8 15 0 -3
BITMAP
3c
3c
00
38
18
18
18
18
18
18
18
7e
18
34
18
ENDCHAR
STARTCHAR LtSmlRMacronLring
ENCODING 823
SWIDTH 960 0
DWIDTH 8 0
BBX 8 15 0 -3
BITMAP
00
00
7c
7c
00
ee
76
60
60
60
60
60
60
d0
60
ENDCHAR
STARTCHAR LtSmlRAcuteLring
ENCODING 824
SWIDTH 960 0
DWIDTH 8 0
BBX 8 15 0 -3
BITMAP
00
0c
18
10
00
ee
76
60
60
60
60
60
60
d0
60
ENDCHAR
STARTCHAR LtSmlRMacronAcuteLring
ENCODING 825
SWIDTH 960 0
DWIDTH 8 0
BBX 8 15 0 -3
BITMAP
0c
18
10
7c
00
ee
76
60
60
60
60
60
60
d0
60
ENDCHAR
STARTCHAR LtSmlRGraveLring
ENCODING 826
SWIDTH 960 0
DWIDTH 8 0
BBX 8 15 0 -3
BITMAP
00
60
30
10
00
ee
76
60
60
60
60
60
60
d0
60
ENDCHAR
STARTCHAR LtCapULdrss
ENCODING 827
SWIDTH 960 0
DWIDTH 8 0
BBX 8 15 0 -3
BITMAP
00
00
c6
c6
c6
c6
c6
c6
c6
c6
c6
7c
00
6c
6c
ENDCHAR
STARTCHAR LtSmlULdrss
ENCODING 828
SWIDTH 960 0
DWIDTH 8 0
BBX 8 15 0 -3
BITMAP
00
00
00
00
00
c6
c6
c6
c6
c6
ce
76
00
6c
6c
ENDCHAR
STARTCHAR LtCapBLmacron
ENCODING 829
SWIDTH 960 0
DWIDTH 8 0
BBX 8 15 0 -3
BITMAP
00
00
fc
c6
c6
c6
fc
c6
c6
c6
c6
fc
00
7c
7c
ENDCHAR
STARTCHAR LtCapDLmacron
ENCODING 830
SWIDTH 960 0
DWIDTH 8 0
BBX 8 15 0 -3
BITMAP
00
00
f8
cc
c6
c6
c6
c6
c6
c6
cc
f8
00
7c
7c
ENDCHAR
STARTCHAR LtCapELmacron
ENCODING 831
SWIDTH 960 0
DWIDTH 8 0
BBX 8 15 0 -3
BITMAP
00
00
fe
c2
c2
c8
f8
c8
c0
c2
c2
fe
00
7c
7c
ENDCHAR
STARTCHAR LtCapHLmacron
ENCODING 832
SWIDTH 960 0
DWIDTH 8 0
BBX 8 15 0 -3
BITMAP
00
00
c6
c6
c6
c6
fe
c6
c6
c6
c6
c6
00
7c
7c
ENDCHAR
STARTCHAR LtCapKLmacron
ENCODING 833
SWIDTH 960 0
DWIDTH 8 0
BBX 8 15 0 -3
BITMAP
00
00
c6
c4
cc
c8
d8
f8
cc
cc
c6
c6
00
7c
7c
ENDCHAR
STARTCHAR LtCapLLmacron
ENCODING 834
SWIDTH 960 0
DWIDTH 8 0
BBX 8 15 0 -3
BITMAP
00
00
c0
c0
c0
c0
c0
c0
c0
c2
c2
fe
00
7c
7c
ENDCHAR
STARTCHAR LtCapNLmacron
ENCODING 835
SWIDTH 960 0
DWIDTH 8 0
BBX 8 15 0 -3
BITMAP
00
00
c2
e2
e2
b2
b2
9a
9a
8e
8e
86
00
7c
7c
ENDCHAR
STARTCHAR LtCapOLmacron
ENCODING 836
SWIDTH 960 0
DWIDTH 8 0
BBX 8 15 0 -3
BITMAP
00
00
7c
c6
c6
c6
c6
c6
c6
c6
c6
7c
00
7c
7c
ENDCHAR
STARTCHAR LtCapRLmacron
ENCODING 837
SWIDTH 960 0
DWIDTH 8 0
BBX 8 15 0 -3
BITMAP
00
00
fc
c6
c6
c6
fc
d8
cc
cc
c6
c6
00
7c
7c
ENDCHAR
STARTCHAR LtCapTLmacron
ENCODING 838
SWIDTH 960 0
DWIDTH 8 0
BBX 8 15 0 -3
BITMAP
00
00
ff
db
18
18
18
18
18
18
18
18
00
3c
3c
ENDCHAR
STARTCHAR LtCapZLmacron
ENCODING 839
SWIDTH 960 0
DWIDTH 8 0
BBX 8 15 0 -3
BITMAP
00
00
fe
86
8c
1c
18
30
70
62
c2
fe
00
7c
7c
ENDCHAR
STARTCHAR LtSmlBLmacron
ENCODING 840
SWIDTH 960 0
DWIDTH 8 0
BBX 8 15 0 -3
BITMAP
00
00
c0
c0
c0
dc
e6
c6
c6
c6
e6
dc
00
7c
7c
ENDCHAR
STARTCHAR LtSmlDLmacron
ENCODING 841
SWIDTH 960 0
DWIDTH 8 0
BBX 8 15 0 -3
BITMAP
00
00
06
06
06
76
ce
c6
c6
c6
ce
76
00
7c
7c
ENDCHAR
STARTCHAR LtSmlELmacron
ENCODING 842
SWIDTH 960 0
DWIDTH 8 0
BBX 8 15 0 -3
BITMAP
00
00
00
00
00
3c
66
c6
fe
c0
66
3c
00
7c
7c
ENDCHAR
STARTCHAR LtSmlHLmacron
ENCODING 843
SWIDTH 960 0
DWIDTH 8 0
BBX 8 15 0 -3
BITMAP
00
00
c0
c0
c0
dc
e6
c6
c6
c6
c6
c6
00
7c
7c
ENDCHAR
STARTCHAR LtSmlKLmacron
ENCODING 844
SWIDTH 960 0
DWIDTH 8 0
BBX 8 15 0 -3
BITMAP
00
00
c0
c0
c0
c6
cc
d0
f8
cc
c6
c6
00
7c
7c
ENDCHAR
STARTCHAR LtSmlLLmacron
ENCODING 845
SWIDTH 960 0
DWIDTH 8 0
BBX 8 15 0 -3
BITMAP
00
00
38
18
18
18
18
18
18
18
18
7e
00
3c
3c
ENDCHAR
STARTCHAR LtSmlNLmacron
ENCODING 846
SWIDTH 960 0
DWIDTH 8 0
BBX 8 15 0 -3
BITMAP
00
00
00
00
00
dc
e6
c6
c6
c6
c6
c6
00
7c
7c
ENDCHAR
STARTCHAR LtSmlOLmacron
ENCODING 847
SWIDTH 960 0
DWIDTH 8 0
BBX 8 15 0 -3
BITMAP
00
00
00
00
00
7c
c6
c6
c6
c6
c6
7c
00
7c
7c
ENDCHAR
STARTCHAR LtSmlRLmacron
ENCODING 848
SWIDTH 960 0
DWIDTH 8 0
BBX 8 15 0 -3
BITMAP
00
00
00
00
00
ee
76
60
60
60
60
60
00
78
78
ENDCHAR
STARTCHAR LtSmlTLmacron
ENCODING 849
SWIDTH 960 0
DWIDTH 8 0
BBX 8 15 0 -3
BITMAP
00
00
00
30
30
fc
30
30
30
30
36
1c
00
3c
3c
ENDCHAR
STARTCHAR LtSmlZLmacron
ENCODING 850
SWIDTH 960 0
DWIDTH 8 0
BBX 8 15 0 -3
BITMAP
00
00
00
00
00
fe
8e
0c
38
60
e2
fe
00
7c
7c
ENDCHAR
STARTCHAR LtCapGHLmacron
ENCODING 851
SWIDTH 960 0
DWIDTH 8 0
BBX 8 15 0 -3
BITMAP
00
00
6a
ea
8a
8a
8e
aa
aa
aa
ea
6a
00
7c
7c
ENDCHAR
STARTCHAR LtCapKHLmacron
ENCODING 852
SWIDTH 960 0
DWIDTH 8 0
BBX 8 15 0 -3
BITMAP
00
00
aa
aa
aa
ea
ce
ea
ea
aa
aa
aa
00
7c
7c
ENDCHAR
STARTCHAR LtMixGHLmacron
ENCODING 853
SWIDTH 960 0
DWIDTH 8 0
BBX 8 15 0 -3
BITMAP
00
00
68
e8
88
8e
8e
aa
aa
aa
ea
6a
00
7c
7c
ENDCHAR
STARTCHAR LtMixKHLmacron
ENCODING 854
SWIDTH 960 0
DWIDTH 8 0
BBX 8 15 0 -3
BITMAP
00
00
a8
a8
a8
ee
ce
ea
ea
aa
aa
aa
00
7c
7c
ENDCHAR
STARTCHAR LtSmlGHLmacron
ENCODING 855
SWIDTH 960 0
DWIDTH 8 0
BBX 8 15 0 -3
BITMAP
00
00
08
08
08
6e
ae
aa
aa
6a
ca
6a
d0
fc
7c
ENDCHAR
STARTCHAR LtSmlKHLmacron
ENCODING 856
SWIDTH 960 0
DWIDTH 8 0
BBX 8 15 0 -3
BITMAP
00
00
88
88
88
ae
ae
ca
ea
ea
aa
aa
00
7c
7c
ENDCHAR
STARTCHAR LtCapDLcircum
ENCODING 857
SWIDTH 960 0
DWIDTH 8 0
BBX 8 15 0 -3
BITMAP
00
00
f8
cc
c6
c6
c6
c6
c6
c6
cc
f8
00
38
6c
ENDCHAR
STARTCHAR LtCapELcircum
ENCODING 858
SWIDTH 960 0
DWIDTH 8 0
BBX 8 15 0 -3
BITMAP
00
00
fe
c2
c2
c8
f8
c8
c0
c2
c2
fe
00
38
6c
ENDCHAR
STARTCHAR LtCapLLcircum
ENCODING 859
SWIDTH 960 0
DWIDTH 8 0
BBX 8 15 0 -3
BITMAP
00
00
c0
c0
c0
c0
c0
c0
c0
c2
c2
fe
00
38
6c
ENDCHAR
STARTCHAR LtCapNLcircum
ENCODING 860
SWIDTH 960 0
DWIDTH 8 0
BBX 8 15 0 -3
BITMAP
00
00
c2
e2
e2
b2
b2
9a
9a
8e
8e
86
00
38
6c
ENDCHAR
STARTCHAR LtCapTLcircum
ENCODING 861
SWIDTH 960 0
DWIDTH 8 0
BBX 8 15 0 -3
BITMAP
00
00
ff
db
18
18
18
18
18
18
18
18
00
1c
36
ENDCHAR
STARTCHAR LtCapULcircum
ENCODING 862
SWIDTH 960 0
DWIDTH 8 0
BBX 8 15 0 -3
BITMAP
00
00
c6
c6
c6
c6
c6
c6
c6
c6
c6
7c
00
38
6c
ENDCHAR
STARTCHAR LtSmlDLcircum
ENCODING 863
SWIDTH 960 0
DWIDTH 8 0
BBX 8 15 0 -3
BITMAP
00
00
06
06
06
76
ce
c6
c6
c6
ce
76
00
38
6c
ENDCHAR
STARTCHAR LtSmlELcircum
ENCODING 864
SWIDTH 960 0
DWIDTH 8 0
BBX 8 15 0 -3
BITMAP
00
00
00
00
00
3c
66
c6
fe
c0
66
3c
00
38
6c
ENDCHAR
STARTCHAR LtSmlLLcircum
ENCODING 865
SWIDTH 960 0
DWIDTH 8 0
BBX 8 15 0 -3
BITMAP
00
00
38
18
18
18
18
18
18
18
18
7e
00
38
6c
ENDCHAR
STARTCHAR LtSmlNLcircum
ENCODING 866
SWIDTH 960 0
DWIDTH 8 0
BBX 8 15 0 -3
BITMAP
00
00
00
00
00
dc
e6
c6
c6
c6
c6
c6
00
38
6c
ENDCHAR
STARTCHAR LtSmlTLcircum
ENCODING 867
SWIDTH 960 0
DWIDTH 8 0
BBX 8 15 0 -3
BITMAP
00
00
00
30
30
fc
30
30
30
30
36
1c
00
1c
36
ENDCHAR
STARTCHAR LtSmlULcircum
ENCODING 868
SWIDTH 960 0
DWIDTH 8 0
BBX 8 15 0 -3
BITMAP
00
00
00
00
00
c6
c6
c6
c6
c6
ce
76
00
38
6c
ENDCHAR
STARTCHAR LtCapHLbreve
ENCODING 869
SWIDTH 960 0
DWIDTH 8 0
BBX 8 15 0 -3
BITMAP
00
00
c6
c6
c6
c6
fe
c6
c6
c6
c6
c6
00
66
3c
ENDCHAR
STARTCHAR LtSmlHLbreve
ENCODING 870
SWIDTH 960 0
DWIDTH 8 0
BBX 8 15 0 -3
BITMAP
00
00
c0
c0
c0
dc
e6
c6
c6
c6
c6
c6
00
66
3c
ENDCHAR
STARTCHAR LtSmlILinvbreve
ENCODING 871
SWIDTH 960 0
DWIDTH 8 0
BBX 8 15 0 -3
BITMAP
00
00
18
18
00
38
18
18
18
18
18
7e
00
3c
66
ENDCHAR
STARTCHAR LtSmlOLinvbreve
ENCODING 872
SWIDTH 960 0
DWIDTH 8 0
BBX 8 15 0 -3
BITMAP
00
00
00
00
00
7c
c6
c6
c6
c6
c6
7c
00
3c
66
ENDCHAR
STARTCHAR LtSmlULinvbreve
ENCODING 873
SWIDTH 960 0
DWIDTH 8 0
BBX 8 15 0 -3
BITMAP
00
00
00
00
00
c6
c6
c6
c6
c6
ce
76
00
3c
66
ENDCHAR
STARTCHAR LtSmlATrndLinvbreve
ENCODING 874
SWIDTH 960 0
DWIDTH 8 0
BBX 8 15 0 -3
BITMAP
00
00
00
00
00
dc
e6
c6
fc
c0
cc
7c
00
3c
66
ENDCHAR
STARTCHAR LtCapELtilde
ENCODING 875
SWIDTH 960 0
DWIDTH 8 0
BBX 8 15 0 -3
BITMAP
00
00
fe
c2
c2
c8
f8
c8
c0
c2
c2
fe
00
36
5c
ENDCHAR
STARTCHAR LtCapILtilde
ENCODING 876
SWIDTH 960 0
DWIDTH 8 0
BBX 8 15 0 -3
BITMAP
00
00
7e
18
18
18
18
18
18
18
18
7e
00
36
5c
ENDCHAR
STARTCHAR LtCapULtilde
ENCODING 877
SWIDTH 960 0
DWIDTH 8 0
BBX 8 15 0 -3
BITMAP
00
00
c6
c6
c6
c6
c6
c6
c6
c6
c6
7c
00
36
5c
ENDCHAR
STARTCHAR LtSmlELtilde
ENCODING 878
SWIDTH 960 0
DWIDTH 8 0
BBX 8 15 0 -3
BITMAP
00
00
00
00
00
3c
66
c6
fe
c0
66
3c
00
36
5c
ENDCHAR
STARTCHAR LtSmlILtilde
ENCODING 879
SWIDTH 960 0
DWIDTH 8 0
BBX 8 15 0 -3
BITMAP
00
00
18
18
00
38
18
18
18
18
18
7e
00
36
5c
ENDCHAR
STARTCHAR LtSmlULtilde
ENCODING 880
SWIDTH 960 0
DWIDTH 8 0
BBX 8 15 0 -3
BITMAP
00
00
00
00
00
c6
c6
c6
c6
c6
ce
76
00
36
5c
ENDCHAR
STARTCHAR HbAlefPatah
ENCODING 1273
SWIDTH 960 0
DWIDTH 8 0
BBX 8 15 0 -3
BITMAP
00
00
00
00
8c
ce
e6
7c
dc
ce
e6
e2
00
7c
00
ENDCHAR
STARTCHAR HbAlefQamats
ENCODING 1275
SWIDTH 960 0
DWIDTH 8 0
BBX 8 15 0 -3
BITMAP
00
00
00
00
8c
ce
e6
7c
dc
ce
e6
e2
00
7e
18
ENDCHAR
STARTCHAR GeGan
ENCODING 1306
SWIDTH 960 0
DWIDTH 8 0
BBX 8 15 0 -3
BITMAP
00
00
00
00
00
00
f0
98
18
7c
c6
c6
c6
c6
7c
ENDCHAR
STARTCHAR GeDon
ENCODING 1307
SWIDTH 960 0
DWIDTH 8 0
BBX 8 15 0 -3
BITMAP
00
00
00
00
00
00
7c
c6
c6
c6
c6
7c
60
fc
86
ENDCHAR
STARTCHAR GeEn
ENCODING 1308
SWIDTH 960 0
DWIDTH 8 0
BBX 8 15 0 -3
BITMAP
00
00
00
00
00
00
3c
66
66
06
06
06
c6
c6
7c
ENDCHAR
STARTCHAR GeVin
ENCODING 1309
SWIDTH 960 0
DWIDTH 8 0
BBX 8 15 0 -3
BITMAP
00
00
00
00
00
00
3c
66
66
0c
1c
06
c6
c6
7c
ENDCHAR
STARTCHAR GeKan
ENCODING 1313
SWIDTH 960 0
DWIDTH 8 0
BBX 8 15 0 -3
BITMAP
00
00
00
00
00
00
04
06
06
1c
0e
06
c6
c6
7c
ENDCHAR
STARTCHAR GeLas
ENCODING 1314
SWIDTH 960 0
DWIDTH 8 0
BBX 8 15 0 -3
BITMAP
00
00
00
00
00
00
7c
c6
c6
c6
c4
60
78
cc
06
ENDCHAR
STARTCHAR GeZhar
ENCODING 1319
SWIDTH 960 0
DWIDTH 8 0
BBX 8 15 0 -3
BITMAP
00
00
00
00
00
00
06
3e
9e
d6
76
06
66
66
3c
ENDCHAR
STARTCHAR GeTar
ENCODING 1322
SWIDTH 960 0
DWIDTH 8 0
BBX 8 15 0 -3
BITMAP
00
00
00
00
00
10
28
38
6c
d6
c6
c6
c6
6c
38
ENDCHAR
STARTCHAR GeUn
ENCODING 1323
SWIDTH 960 0
DWIDTH 8 0
BBX 8 15 0 -3
BITMAP
00
00
00
00
00
00
dc
f6
36
36
06
06
c6
c6
7c
ENDCHAR
STARTCHAR GePhar
ENCODING 1324
SWIDTH 960 0
DWIDTH 8 0
BBX 8 15 0 -3
BITMAP
00
00
00
00
00
00
6c
fe
92
92
f6
6c
06
66
3c
ENDCHAR
STARTCHAR GeKhar
ENCODING 1325
SWIDTH 960 0
DWIDTH 8 0
BBX 8 15 0 -3
BITMAP
00
00
02
06
06
06
06
1e
7e
46
06
06
c6
c6
7c
ENDCHAR
STARTCHAR GeGhan
ENCODING 1326
SWIDTH 960 0
DWIDTH 8 0
BBX 8 15 0 -3
BITMAP
00
00
00
00
00
00
6c
d6
d6
d6
c6
c4
70
cc
06
ENDCHAR
STARTCHAR GeQar
ENCODING 1327
SWIDTH 960 0
DWIDTH 8 0
BBX 8 15 0 -3
BITMAP
00
00
00
00
00
00
46
c6
c6
4e
3e
06
c6
c6
7c
ENDCHAR
STARTCHAR GeCan
ENCODING 1330
SWIDTH 960 0
DWIDTH 8 0
BBX 8 15 0 -3
BITMAP
00
00
00
00
00
00
68
cc
c6
c6
cc
c6
c6
c6
7c
ENDCHAR
STARTCHAR GeCil
ENCODING 1332
SWIDTH 960 0
DWIDTH 8 0
BBX 8 15 0 -3
BITMAP
00
00
6c
d6
d6
c4
c0
7e
66
64
34
34
38
18
18
ENDCHAR
STARTCHAR GeChar
ENCODING 1333
SWIDTH 960 0
DWIDTH 8 0
BBX 8 15 0 -3
BITMAP
00
00
30
30
18
0c
0c
6e
dc
6e
0c
0c
cc
cc
78
ENDCHAR
STARTCHAR GeWe
ENCODING 1339
SWIDTH 960 0
DWIDTH 8 0
BBX 8 15 0 -3
BITMAP
00
00
00
00
00
00
7e
46
0c
18
3c
06
c6
c6
7c
ENDCHAR
STARTCHAR GeHar
ENCODING 1340
SWIDTH 960 0
DWIDTH 8 0
BBX 8 15 0 -3
BITMAP
00
00
18
30
30
30
1e
06
0c
18
3c
06
c6
c6
7c
ENDCHAR
STARTCHAR GeFi
ENCODING 1342
SWIDTH 960 0
DWIDTH 8 0
BBX 8 15 0 -3
BITMAP
00
00
00
00
00
00
6c
fe
d6
d6
d6
5c
10
30
60
ENDCHAR
STARTCHAR GeYn
ENCODING 1343
SWIDTH 960 0
DWIDTH 8 0
BBX 8 15 0 -3
BITMAP
00
00
00
00
00
00
7c
c6
c6
0c
38
60
c6
c6
7c
ENDCHAR
STARTCHAR GeElifi
ENCODING 1344
SWIDTH 960 0
DWIDTH 8 0
BBX 8 15 0 -3
BITMAP
00
00
00
00
00
00
c4
c6
c6
e4
f8
c0
c6
c6
7c
ENDCHAR
STARTCHAR GeUo
ENCODING 1347
SWIDTH 960 0
DWIDTH 8 0
BBX 8 15 0 -3
BITMAP
00
00
00
00
00
00
76
de
d8
d8
c0
c0
c6
c6
7c
ENDCHAR
STARTCHAR GeGanTrnd
ENCODING 1350
SWIDTH 960 0
DWIDTH 8 0
BBX 8 15 0 -3
BITMAP
00
00
00
00
00
00
7c
c6
c6
c6
c6
7c
30
32
1e
ENDCHAR
STARTCHAR GeUnDrss
ENCODING 1353
SWIDTH 960 0
DWIDTH 8 0
BBX 8 15 0 -3
BITMAP
00
00
00
6c
6c
00
dc
f6
36
36
06
06
c6
c6
7c
ENDCHAR
STARTCHAR GeUnCircum
ENCODING 1355
SWIDTH 960 0
DWIDTH 8 0
BBX 8 15 0 -3
BITMAP
00
00
30
78
48
00
dc
f6
36
36
06
06
c6
c6
7c
ENDCHAR
STARTCHAR GeEnMacron
ENCODING 1357
SWIDTH 960 0
DWIDTH 8 0
BBX 8 15 0 -3
BITMAP
00
00
00
3c
3c
00
3c
66
66
06
06
06
c6
c6
7c
ENDCHAR
STARTCHAR GeUnMacron
ENCODING 1360
SWIDTH 960 0
DWIDTH 8 0
BBX 8 15 0 -3
BITMAP
00
00
00
3c
3c
00
dc
f6
36
36
06
06
c6
c6
7c
ENDCHAR
STARTCHAR AmSmlEh
ENCODING 1407
SWIDTH 960 0
DWIDTH 8 0
BBX 8 15 0 -3
BITMAP
00
00
c0
c0
c0
c0
fc
c0
c0
c0
c0
78
0c
18
00
ENDCHAR
STARTCHAR AmSmlYi
ENCODING 1421
SWIDTH 960 0
DWIDTH 8 0
BBX 8 15 0 -3
BITMAP
00
00
00
00
00
00
70
30
30
30
30
30
30
b0
e0
ENDCHAR
STARTCHAR AmSmlSha
ENCODING 1423
SWIDTH 960 0
DWIDTH 8 0
BBX 8 15 0 -3
BITMAP
00
00
00
00
00
00
38
4c
0c
18
30
60
c0
e0
7c
ENDCHAR
STARTCHAR AmSmlCha
ENCODING 1425
SWIDTH 960 0
DWIDTH 8 0
BBX 8 15 0 -3
BITMAP
00
00
00
00
00
00
30
70
38
10
20
60
c0
e0
7c
ENDCHAR
STARTCHAR AmSmlJheh
ENCODING 1427
SWIDTH 960 0
DWIDTH 8 0
BBX 8 15 0 -3
BITMAP
00
00
30
78
9c
cc
cc
ec
68
70
20
60
c0
e0
7c
ENDCHAR
STARTCHAR AmSmlCo
ENCODING 1433
SWIDTH 960 0
DWIDTH 8 0
BBX 8 15 0 -3
BITMAP
00
00
00
00
00
00
7c
cc
cc
cc
cc
7c
0c
cc
78
ENDCHAR
STARTCHAR AmSmlKeh
ENCODING 1436
SWIDTH 960 0
DWIDTH 8 0
BBX 8 15 0 -3
BITMAP
00
00
00
00
00
00
f8
cc
cc
cc
cc
f8
c0
fc
c0
ENDCHAR
STARTCHAR GkCapIotTrndLbreve
ENCODING 1529
SWIDTH 960 0
DWIDTH 8 0
BBX 8 15 0 -3
BITMAP
00
00
7e
18
18
18
18
18
18
18
18
7e
00
66
3c
ENDCHAR
STARTCHAR GkCapUpsTrndLbreve
ENCODING 1530
SWIDTH 960 0
DWIDTH 8 0
BBX 8 15 0 -3
BITMAP
00
00
18
18
18
18
18
1c
2c
26
46
c2
00
66
3c
ENDCHAR
STARTCHAR GkSmlIotTrndLbreve
ENCODING 1531
SWIDTH 960 0
DWIDTH 8 0
BBX 8 15 0 -3
BITMAP
00
00
00
00
00
38
6c
0c
0c
0c
0e
0c
00
36
1c
ENDCHAR
STARTCHAR GkSmlUpsTrndLbreve
ENCODING 1532
SWIDTH 960 0
DWIDTH 8 0
BBX 8 15 0 -3
BITMAP
00
00
00
00
00
78
cc
8c
8c
cc
ce
46
00
66
3c
ENDCHAR
STARTCHAR ThYoYing
ENCODING 1770
SWIDTH 960 0
DWIDTH 8 0
BBX 8 15 0 -3
BITMAP
00
00
00
00
00
66
f6
d6
d6
d6
de
cc
00
1a
0c
ENDCHAR
STARTCHAR ThDoChada
ENCODING 1772
SWIDTH 960 0
DWIDTH 8 0
BBX 8 15 0 -3
BITMAP
00
00
00
00
00
7c
c6
86
66
66
e6
e6
06
26
3c
ENDCHAR
STARTCHAR ThToPatak
ENCODING 1773
SWIDTH 960 0
DWIDTH 8 0
BBX 8 15 0 -3
BITMAP
00
00
00
00
00
7c
c6
86
66
66
e6
e6
06
56
7c
ENDCHAR
STARTCHAR ThThoThan
ENCODING 1774
SWIDTH 960 0
DWIDTH 8 0
BBX 8 15 0 -3
BITMAP
00
00
00
00
00
fe
fe
0c
36
36
0e
06
00
56
7c
ENDCHAR
STARTCHAR ThRu
ENCODING 1795
SWIDTH 960 0
DWIDTH 8 0
BBX 8 15 0 -3
BITMAP
00
00
00
00
00
7c
c6
86
66
66
76
76
06
06
06
ENDCHAR
STARTCHAR ThLu
ENCODING 1797
SWIDTH 960 0
DWIDTH 8 0
BBX 8 15 0 -3
BITMAP
00
00
00
00
00
7c
c6
86
66
66
e6
e6
06
06
06
ENDCHAR
STARTCHAR ThMaiyamok
ENCODING 1808
SWIDTH 960 0
DWIDTH 8 0
BBX 8 15 0 -3
BITMAP
00
00
00
00
00
6c
fe
96
c6
c6
06
06
06
06
0c
ENDCHAR
STARTCHAR ThLakkhangyao
ENCODING 1809
SWIDTH 960 0
DWIDTH 8 0
BBX 8 15 0 -3
BITMAP
00
00
00
00
00
3c
66
66
06
06
06
06
06
06
06
ENDCHAR
STARTCHAR ThSaraU
ENCODING 1831
SWIDTH 960 0
DWIDTH 8 0
BBX 8 15 0 -3
BITMAP
00
00
00
00
00
00
00
00
00
00
00
00
00
06
02
ENDCHAR
STARTCHAR ThSaraUu
ENCODING 1832
SWIDTH 960 0
DWIDTH 8 0
BBX 8 15 0 -3
BITMAP
00
00
00
00
00
00
00
00
00
00
00
00
00
1a
0e
ENDCHAR
STARTCHAR ThPhinthu
ENCODING 1833
SWIDTH 960 0
DWIDTH 8 0
BBX 8 15 0 -3
BITMAP
00
00
00
00
00
00
00
00
00
00
00
00
00
06
06
ENDCHAR
STARTCHAR CombHbMeteg
ENCODING 2118
SWIDTH 960 0
DWIDTH 8 0
BBX 8 15 0 -3
BITMAP
00
00
00
00
00
00
00
00
00
00
00
00
10
10
10
ENDCHAR
STARTCHAR CombHbPatah
ENCODING 2119
SWIDTH 960 0
DWIDTH 8 0
BBX 8 15 0 -3
BITMAP
00
00
00
00
00
00
00
00
00
00
00
00
00
7c
00
ENDCHAR
STARTCHAR CombHbQamats
ENCODING 2120
SWIDTH 960 0
DWIDTH 8 0
BBX 8 15 0 -3
BITMAP
00
00
00
00
00
00
00
00
00
00
00
00
00
7e
18
ENDCHAR
STARTCHAR CombHbSegol
ENCODING 2121
SWIDTH 960 0
DWIDTH 8 0
BBX 8 15 0 -3
BITMAP
00
00
00
00
00
00
00
00
00
00
00
00
00
66
18
ENDCHAR
STARTCHAR CombHbHatafQamats
ENCODING 2125
SWIDTH 960 0
DWIDTH 8 0
BBX 8 15 0 -3
BITMAP
00
00
00
00
00
00
00
00
00
00
00
00
06
f0
66
ENDCHAR
STARTCHAR CombLdot
ENCODING 2174
SWIDTH 960 0
DWIDTH 8 0
BBX 8 15 0 -3
BITMAP
00
00
00
00
00
00
00
00
00
00
00
00
00
18
18
ENDCHAR
STARTCHAR CombLvline
ENCODING 2175
SWIDTH 960 0
DWIDTH 8 0
BBX 8 15 0 -3
BITMAP
00
00
00
00
00
00
00
00
00
00
00
00
18
18
18
ENDCHAR
STARTCHAR CombLdrss
ENCODING 2176
SWIDTH 960 0
DWIDTH 8 0
BBX 8 15 0 -3
BITMAP
00
00
00
00
00
00
00
00
00
00
00
00
00
6c
6c
ENDCHAR
STARTCHAR CombLvline2
ENCODING 2177
SWIDTH 960 0
DWIDTH 8 0
BBX 8 15 0 -3
BITMAP
00
00
00
00
00
00
00
00
00
00
00
00
6c
6c
6c
ENDCHAR
STARTCHAR CombLcircum
ENCODING 2180
SWIDTH 960 0
DWIDTH 8 0
BBX 8 15 0 -3
BITMAP
00
00
00
00
00
00
00
00
00
00
00
00
00
38
6c
ENDCHAR
STARTCHAR CombLcaron
ENCODING 2181
SWIDTH 960 0
DWIDTH 8 0
BBX 8 15 0 -3
BITMAP
00
00
00
00
00
00
00
00
00
00
00
00
00
6c
38
ENDCHAR
STARTCHAR CombLbreve
ENCODING 2182
SWIDTH 960 0
DWIDTH 8 0
BBX 8 15 0 -3
BITMAP
00
00
00
00
00
00
00
00
00
00
00
00
00
66
3c
ENDCHAR
STARTCHAR CombLinvbreve
ENCODING 2183
SWIDTH 960 0
DWIDTH 8 0
BBX 8 15 0 -3
BITMAP
00
00
00
00
00
00
00
00
00
00
00
00
00
3c
66
ENDCHAR
STARTCHAR CombLmacron
ENCODING 2184
SWIDTH 960 0
DWIDTH 8 0
BBX 8 15 0 -3
BITMAP
00
00
00
00
00
00
00
00
00
00
00
00
00
7c
7c
ENDCHAR
STARTCHAR CombLtilde
ENCODING 2187
SWIDTH 960 0
DWIDTH 8 0
BBX 8 15 0 -3
BITMAP
00
00
00
00
00
00
00
00
00
00
00
00
00
36
5c
ENDCHAR
STARTCHAR MArrowU
ENCODING 2475
SWIDTH 960 0
DWIDTH 8 0
BBX 8 15 0 -3
BITMAP
00
18
3c
7e
18
18
18
18
18
18
18
18
18
18
00
ENDCHAR
STARTCHAR MArrowD
ENCODING 2476
SWIDTH 960 0
DWIDTH 8 0
BBX 8 15 0 -3
BITMAP
00
18
18
18
18
18
18
18
18
18
18
7e
3c
18
00
ENDCHAR
STARTCHAR MArrowUD
ENCODING 2477
SWIDTH 960 0
DWIDTH 8 0
BBX 8 15 0 -3
BITMAP
00
18
3c
7e
18
18
18
18
18
18
18
7e
3c
18
00
ENDCHAR
STARTCHAR MArrowUDBase
ENCODING 2478
SWIDTH 960 0
DWIDTH 8 0
BBX 8 15 0 -3
BITMAP
00
18
3c
7e
18
18
18
18
18
7e
3c
18
7e
7e
00
ENDCHAR
STARTCHAR MArrowULeftD
ENCODING 2479
SWIDTH 960 0
DWIDTH 8 0
BBX 8 15 0 -3
BITMAP
00
66
f6
fe
66
66
66
66
66
66
66
7f
6f
66
00
ENDCHAR
STARTCHAR MArrowULeftU
ENCODING 2480
SWIDTH 960 0
DWIDTH 8 0
BBX 8 15 0 -3
BITMAP
00
66
ff
ff
66
66
66
66
66
66
66
66
66
66
00
ENDCHAR
STARTCHAR MArrowDLeftD
ENCODING 2481
SWIDTH 960 0
DWIDTH 8 0
BBX 8 15 0 -3
BITMAP
00
66
66
66
66
66
66
66
66
66
66
ff
ff
66
00
ENDCHAR
STARTCHAR MArrowUu
ENCODING 2482
SWIDTH 960 0
DWIDTH 8 0
BBX 8 15 0 -3
BITMAP
00
18
3c
7e
18
3c
7e
18
18
18
18
18
18
18
00
ENDCHAR
STARTCHAR MArrowDd
ENCODING 2483
SWIDTH 960 0
DWIDTH 8 0
BBX 8 15 0 -3
BITMAP
00
18
18
18
18
18
18
18
7e
3c
18
7e
3c
18
00
ENDCHAR
STARTCHAR MArrowBarU
ENCODING 2484
SWIDTH 960 0
DWIDTH 8 0
BBX 8 15 0 -3
BITMAP
00
18
3c
7e
18
18
18
18
18
18
18
18
7e
7e
00
ENDCHAR
STARTCHAR MArrowBarD
ENCODING 2485
SWIDTH 960 0
DWIDTH 8 0
BBX 8 15 0 -3
BITMAP
00
7e
7e
18
18
18
18
18
18
18
18
7e
3c
18
00
ENDCHAR
STARTCHAR MArrowLU
ENCODING 2488
SWIDTH 960 0
DWIDTH 8 0
BBX 8 15 0 -3
BITMAP
00
c0
e0
f0
e0
b0
30
18
18
0c
0c
06
06
02
00
ENDCHAR
STARTCHAR MArrowRU
ENCODING 2489
SWIDTH 960 0
DWIDTH 8 0
BBX 8 15 0 -3
BITMAP
00
06
0e
1e
0e
1a
18
30
30
60
60
c0
c0
80
00
ENDCHAR
STARTCHAR MArrowLD
ENCODING 2490
SWIDTH 960 0
DWIDTH 8 0
BBX 8 15 0 -3
BITMAP
00
02
06
06
0c
0c
18
18
30
b0
e0
f0
e0
c0
00
ENDCHAR
STARTCHAR MArrowRD
ENCODING 2491
SWIDTH 960 0
DWIDTH 8 0
BBX 8 15 0 -3
BITMAP
00
80
c0
c0
60
60
30
30
18
1a
0e
1e
0e
06
00
ENDCHAR
STARTCHAR MArrow2U
ENCODING 2500
SWIDTH 960 0
DWIDTH 8 0
BBX 8 15 0 -3
BITMAP
00
10
38
7c
ee
6c
6c
6c
6c
6c
6c
6c
6c
6c
00
ENDCHAR
STARTCHAR MArrow2D
ENCODING 2501
SWIDTH 960 0
DWIDTH 8 0
BBX 8 15 0 -3
BITMAP
00
6c
6c
6c
6c
6c
6c
6c
6c
6c
ee
7c
38
10
00
ENDCHAR
STARTCHAR MArrow2UD
ENCODING 2502
SWIDTH 960 0
DWIDTH 8 0
BBX 8 15 0 -3
BITMAP
00
10
38
7c
ee
6c
6c
6c
6c
6c
ee
7c
38
10
00
ENDCHAR
STARTCHAR MHarpoonUl
ENCODING 2518
SWIDTH 960 0
DWIDTH 8 0
BBX 8 15 0 -3
BITMAP
00
18
38
78
18
18
18
18
18
18
18
18
18
18
00
ENDCHAR
STARTCHAR MHarpoonUr
ENCODING 2519
SWIDTH 960 0
DWIDTH 8 0
BBX 8 15 0 -3
BITMAP
00
18
1c
1e
18
18
18
18
18
18
18
18
18
18
00
ENDCHAR
STARTCHAR MHarpoonDl
ENCODING 2520
SWIDTH 960 0
DWIDTH 8 0
BBX 8 15 0 -3
BITMAP
00
18
18
18
18
18
18
18
18
18
18
78
38
18
00
ENDCHAR
STARTCHAR MHarpoonDr
ENCODING 2521
SWIDTH 960 0
DWIDTH 8 0
BBX 8 15 0 -3
BITMAP
00
18
18
18
18
18
18
18
18
18
18
1e
1c
18
00
ENDCHAR
STARTCHAR PCurlyBrackLTRB
ENCODING 2649
SWIDTH 960 0
DWIDTH 8 0
BBX 8 15 0 -3
BITMAP
06
0c
18
18
18
18
18
18
18
18
18
18
18
30
60
ENDCHAR
STARTCHAR PCurlyBrackLBRT
ENCODING 2650
SWIDTH 960 0
DWIDTH 8 0
BBX 8 15 0 -3
BITMAP
60
30
18
18
18
18
18
18
18
18
18
18
18
0c
06
ENDCHAR
STARTCHAR MSumT
ENCODING 2651
SWIDTH 960 0
DWIDTH 8 0
BBX 8 15 0 -3
BITMAP
00
fe
c2
c2
c0
60
60
60
30
30
30
30
18
18
18
ENDCHAR
STARTCHAR MRootB
ENCODING 2653
SWIDTH 960 0
DWIDTH 8 0
BBX 8 15 0 -3
BITMAP
18
18
18
18
18
18
d8
d8
58
78
38
38
38
18
18
ENDCHAR
ENDFONT
